<svg width="614" height="539" viewBox="0 0 614 539" fill="none" xmlns="http://www.w3.org/2000/svg">
<path d="M273.384 395.743V31.7576C317.374 54.0709 339.369 132.167 344.868 168.426V285.571C344.868 321.83 324.248 402.716 388.858 447.343C453.467 491.969 516.703 451.526 531.824 413.873C546.946 376.219 546.946 298.122 472.713 273.02C413.327 252.938 370.07 291.614 355.865 313.463V203.291C392.157 192.134 438.804 193.064 457.592 194.924C610.181 224.21 612.93 331.592 612.93 369.246C612.93 406.9 585.437 536.596 438.346 537.99C320.673 539.106 279.341 443.624 273.384 395.743Z" fill="black"/>
<path d="M137.049 82.8184C191.784 60.4718 237.572 95.9145 256.888 122.405V20.6009C206.3 -8.40634 137.749 1.07681 109.798 9.44429C-7.87489 61.8805 -7.05007 171.68 8.07141 220.026C45.4627 360.6 189.529 358.554 256.888 339.96V228.393C243.691 255.169 200.068 269.301 179.906 273.02C96.5654 273.02 75.7299 222.687 77.3925 174.512C78.7378 135.533 100.94 97.5609 137.049 82.8184Z" fill="black"/>
<path d="M273.384 395.743V31.7576C317.374 54.0709 339.369 132.167 344.868 168.426V285.571C344.868 321.83 324.248 402.716 388.858 447.343C453.467 491.969 516.703 451.526 531.824 413.873C546.946 376.219 546.946 298.122 472.713 273.02C413.327 252.938 370.07 291.614 355.865 313.463V203.291C392.157 192.134 438.804 193.064 457.592 194.924C610.181 224.21 612.93 331.592 612.93 369.246C612.93 406.9 585.437 536.596 438.346 537.99C320.673 539.106 279.341 443.624 273.384 395.743Z" stroke="white"/>
<path d="M137.049 82.8184C191.784 60.4718 237.572 95.9145 256.888 122.405V20.6009C206.3 -8.40634 137.749 1.07681 109.798 9.44429C-7.87489 61.8805 -7.05007 171.68 8.07141 220.026C45.4627 360.6 189.529 358.554 256.888 339.96V228.393C243.691 255.169 200.068 269.301 179.906 273.02C96.5654 273.02 75.7299 222.687 77.3925 174.512C78.7378 135.533 100.94 97.5609 137.049 82.8184Z" stroke="white"/>
</svg>
